#!OML:ASF F:\VICON\USERDATA\INSTALL\rory3\rory3.ASF
:FULLY-SPECIFIED
:DEGREES
301
root 1.07471 16.1893 -17.1592 -0.802055 -1.49269 0.00295556
lowerback 13.2987 -0.44721 -1.739
upperback 2.44412 -0.723132 2.08096
thorax -4.83065 -0.319582 3.29622
lowerneck -17.121 -2.9337 -9.80804
upperneck 14.8039 -2.69079 6.31948
head 7.5945 -1.24427 3.38809
rclavicle -1.23246e-014 1.07344e-014
rhumerus -29.0275 -14.0865 -77.9105
rradius 34.2882
rwrist 1.67512
rhand -17.0773 15.0275
rfingers 7.12502
rthumb 9.16072 -14.7535
lclavicle -1.23246e-014 1.07344e-014
lhumerus -23.8884 12.8122 81.6045
lradius 36.0817
lwrist 4.02431
lhand -20.6714 23.2299
lfingers 7.12502
lthumb 5.69164 53.1335
rfemur -21.0452 -2.24271 25.2176
rtibia 56.772
rfoot -26.7801 -14.3834
rtoes -4.59448
lfemur -22.9284 2.83743 -19.4999
ltibia 56.3487
lfoot -28.2986 2.50849
ltoes -7.11824
302
root 1.07456 16.233 -17.1504 -0.754045 -2.00827 -0.206329
lowerback 13.1749 -0.32993 -1.55386
upperback 2.24306 -0.538581 2.10551
thorax -4.98889 -0.226818 3.18597
lowerneck -17.0662 -2.89765 -9.77489
upperneck 15.2756 -2.68504 6.3948
head 7.74064 -1.23885 3.41501
rclavicle -4.17448e-015 -1.03368e-014
rhumerus -30.0486 -14.1544 -77.7727
rradius 34.2286
rwrist 1.67456
rhand -16.4378 15.6693
rfingers 7.12502
rthumb 9.7778 -14.0837
lclavicle -4.17448e-015 -1.03368e-014
lhumerus -24.8422 13.4127 81.4713
lradius 35.4401
lwrist 2.44054
lhand -20.6555 23.8112
lfingers 7.12502
lthumb 5.707 53.7144
rfemur -20.7812 -2.11046 25.4216
rtibia 56.0086
rfoot -26.3223 -13.9315
rtoes -4.72639
lfemur -22.4952 3.52711 -19.1719
ltibia 55.522
lfoot -28.0291 2.03118
ltoes -6.97557
303
root 1.07515 16.2921 -17.136 -0.754444 -2.50422 -0.371249
lowerback 13.0051 -0.187333 -1.31635
upperback 2.13426 -0.318931 2.03962
thorax -5.02638 -0.121518 2.94253
lowerneck -17.0584 -2.96141 -9.65041
upperneck 15.6279 -2.83339 6.47965
head 7.86801 -1.29782 3.41026
rclavicle -1.27222e-014 7.15625e-015
rhumerus -30.7871 -14.9159 -77.586
rradius 33.8241
rwrist 2.50469
rhand -15.5471 15.6095
rfingers 7.12502
rthumb 10.637 -14.1013
lclavicle -1.27222e-014 7.15625e-015
lhumerus -25.7988 13.8708 81.2749
lradius 34.9813
lwrist 0.432708
lhand -20.3699 23.3016
lfingers 7.12502
lthumb 5.98275 53.1971
rfemur -20.243 -2.0343 25.5218
rtibia 55.0269
rfoot -25.9223 -13.4099
rtoes -4.82474
lfemur -21.8483 4.13464 -18.9173
ltibia 54.5127
lfoot -27.78 1.63739
ltoes -6.93607
304
root 1.07238 16.374 -17.1199 -0.789374 -2.78172 -0.252205
lowerback 12.7462 -0.106707 -1.3974
upperback 2.12771 -0.227373 1.94741
thorax -4.89598 -0.0774124 2.87238
lowerneck -16.992 -3.04082 -9.5885
upperneck 15.7575 -2.97908 6.52926
head 7.91182 -1.36087 3.4012
rclavicle -3.77691e-015 -1.70955e-014
rhumerus -31.3414 -15.7761 -77.3155
rradius 33.4201
rwrist 3.63331
rhand -14.196 15.0388
rfingers 7.12502
rthumb 11.9401 -14.6007
lclavicle -3.77691e-015 -1.70955e-014
lhumerus -26.7975 14.1304 81.1982
lradius 34.7133
lwrist -1.27614
lhand -20.8058 23.6684
lfingers 7.12502
lthumb 5.56185 53.5754
rfemur -19.4695 -2.15148 25.2663
rtibia 53.8213
rfoot -25.7304 -12.6411
rtoes -3.7793
lfemur -20.9818 4.51798 -18.9882
ltibia 53.2904
lfoot -27.4475 1.33049
ltoes -6.56617
305
root 1.06936 16.4589 -17.1128 -0.819648 -2.98057 -0.108187
lowerback 12.5544 -0.0711671 -1.54997
upperback 2.10546 -0.202148 1.90025
thorax -4.81464 -0.0637233 2.90297
lowerneck -16.9392 -3.04268 -9.72591
upperneck 15.9657 -3.00849 6.7794
head 7.98023 -1.36184 3.50843
rclavicle -1.15295e-014 -8.34896e-015
rhumerus -31.9555 -15.9482 -77.1619
rradius 33.3107
rwrist 4.43218
rhand -13.4755 15.1161
rfingers 7.12502
rthumb 12.6348 -14.4818
lclavicle -1.15295e-014 -8.34896e-015
lhumerus -27.9125 14.4267 81.1425
lradius 34.7471
lwrist -2.65171
lhand -21.2181 23.661
lfingers 7.12502
lthumb 5.16378 53.5781
rfemur -18.622 -2.26653 24.9709
rtibia 52.401
rfoot -25.4473 -11.7233
rtoes -2.41896
lfemur -20.1328 4.74956 -19.103
ltibia 51.9006
lfoot -26.9079 1.01387
ltoes -5.82248
306
root 1.06134 16.5472 -17.1042 -0.753386 -3.23887 0.0701938
lowerback 12.2829 0.00367246 -1.77454
upperback 2.04356 -0.134681 1.8115
thorax -4.73345 -0.0279438 2.92347
lowerneck -16.955 -3.04718 -9.70624
upperneck 16.1317 -3.06173 6.96593
head 8.04527 -1.36893 3.56474
rclavicle 9.14409e-015 7.95139e-016
rhumerus -32.6801 -15.7924 -77.1644
rradius 33.4374
rwrist 4.92978
rhand -13.5054 15.5952
rfingers 7.12502
rthumb 12.606 -14.0044
lclavicle 9.14409e-015 7.95139e-016
lhumerus -29.0085 14.3888 81.0291
lradius 34.8083
lwrist -3.42626
lhand -21.7395 22.5025
lfingers 7.12502
lthumb 4.66029 52.4312
rfemur -17.8145 -2.28341 24.6725
rtibia 50.818
rfoot -24.9461 -10.9272
rtoes -1.97734
lfemur -19.3794 4.96205 -19.2549
ltibia 50.3894
lfoot -26.2133 0.718416
ltoes -5.29918
307
root 1.04708 16.6427 -17.0876 -0.533399 -3.44138 0.110265
lowerback 11.7582 0.025739 -1.9219
upperback 1.97353 -0.119074 1.79203
thorax -4.51755 -0.0203916 2.97924
lowerneck -16.8653 -3.06735 -9.61214
upperneck 16.0262 -3.1164 6.95586
head 7.99753 -1.39065 3.53776
rclavicle 1.95803e-014 2.42517e-014
rhumerus -33.4566 -15.3066 -77.2238
rradius 33.8579
rwrist 5.10131
rhand -13.4821 15.6981
rfingers 7.12502
rthumb 12.6284 -13.9002
lclavicle 1.95803e-014 2.42517e-014
lhumerus -30.0688 14.1447 80.9893
lradius 34.7901
lwrist -3.097
lhand -22.0893 21.953
lfingers 7.12502
lthumb 4.32252 51.8889
rfemur -17.1469 -2.18762 24.5848
rtibia 49.1325
rfoot -24.3057 -10.4829
rtoes -2.06794
lfemur -18.7361 5.08186 -19.2558
ltibia 48.8471
lfoot -25.5142 0.557179
ltoes -4.94527
308
root 1.03266 16.7342 -17.0768 -0.3116 -3.36926 -0.0354694
lowerback 11.2932 -0.051697 -1.86439
upperback 1.96658 -0.205796 1.86308
thorax -4.2618 -0.0672948 3.02932
lowerneck -16.7968 -3.06789 -9.70913
upperneck 15.7298 -3.11249 7.08422
head 7.89029 -1.3809 3.5939
rclavicle 1.79403e-014 1.03368e-014
rhumerus -34.1149 -14.4235 -77.4092
rradius 34.5763
rwrist 4.88086
rhand -13.5711 14.2362
rfingers 7.12502
rthumb 12.5426 -15.3673
lclavicle 1.79403e-014 1.03368e-014
lhumerus -30.835 13.985 81.1117
lradius 34.6092
lwrist -2.09424
lhand -21.8507 22.361
lfingers 7.12502
lthumb 4.55293 52.292
rfemur -16.5684 -2.04719 24.7351
rtibia 47.4326
rfoot -23.5561 -10.3424
rtoes -1.75004
lfemur -18.1903 4.94189 -19.0584
ltibia 47.3165
lfoot -24.769 0.378578
ltoes -4.35127
309
root 1.01923 16.819 -17.0786 -0.046882 -2.90508 -0.00635462
lowerback 10.9926 -0.218594 -1.90518
upperback 1.89446 -0.427964 1.862
thorax -4.15572 -0.177248 3.08034
lowerneck -16.88 -3.0968 -9.80477
upperneck 15.5371 -3.14747 7.2676
head 7.84865 -1.38247 3.66491
rclavicle 2.48481e-016 1.31198e-014
rhumerus -34.6113 -13.9143 -77.5114
rradius 34.7294
rwrist 5.08726
rhand -14.0078 13.4765
rfingers 7.12502
rthumb 12.1216 -16.1524
lclavicle 2.48481e-016 1.31198e-014
lhumerus -31.4956 13.8144 81.188
lradius 34.4021
lwrist -1.24833
lhand -21.3499 21.766
lfingers 7.12502
lthumb 5.03651 51.6861
rfemur -16.0406 -2.13263 24.6867
rtibia 45.7716
rfoot -22.9363 -10.0038
rtoes -0.336618
lfemur -17.8475 4.38779 -19.0912
ltibia 45.8021
lfoot -23.8779 0.223842
ltoes -3.84881
310
root 1.01225 16.8998 -17.0819 0.338913 -2.81135 0.13856
lowerback 10.6474 -0.311379 -2.06111
upperback 1.6166 -0.564014 1.84932
thorax -4.24417 -0.237615 3.17253
lowerneck -16.6967 -3.13175 -9.88468
upperneck 15.5598 -3.19524 7.27167
head 7.8301 -1.41321 3.67448
rclavicle 1.78906e-015 8.34896e-015
rhumerus -35.2741 -13.8042 -77.2776
rradius 34.3216
rwrist 5.84704
rhand -14.5202 14.39
rfingers 7.12502
rthumb 11.6275 -15.2674
lclavicle 1.78906e-015 8.34896e-015
lhumerus -32.6645 13.8403 81.1171
lradius 34.3752
lwrist -0.522353
lhand -21.1294 20.5476
lfingers 7.12502
lthumb 5.24944 50.4626
rfemur -15.6414 -2.09596 24.4713
rtibia 44.1639
rfoot -22.3863 -9.38532
rtoes 1.96148
lfemur -17.5829 3.97036 -19.3118
ltibia 44.3133
lfoot -22.9958 0.449574
ltoes -4.0423
311
root 1.01441 16.9847 -17.0732 0.629284 -3.28622 0.131706
lowerback 10.202 -0.246348 -2.01159
upperback 1.42964 -0.465418 1.8559
thorax -4.19923 -0.188032 3.13303
lowerneck -16.4339 -3.13262 -10.0283
upperneck 15.5037 -3.20216 7.36304
head 7.77022 -1.42083 3.72828
rclavicle 2.68359e-015 3.18055e-015
rhumerus -36.0016 -13.644 -77.0541
rradius 34.2745
rwrist 6.10836
rhand -14.7363 14.7567
rfingers 7.12502
rthumb 11.4191 -14.9124
lclavicle 2.68359e-015 3.18055e-015
lhumerus -33.9846 13.8625 81.0275
lradius 34.6183
lwrist 0.275526
lhand -20.9725 20.2033
lfingers 7.12502
lthumb 5.40095 50.1144
rfemur -15.1551 -1.72699 24.3914
rtibia 42.5568
rfoot -21.639 -8.92158
rtoes 3.07322
lfemur -17.0265 3.88849 -19.396
ltibia 42.8296
lfoot -22.2381 0.894103
ltoes -4.12367
312
root 1.0117 17.0667 -17.061 0.698873 -3.38586 0.160364
lowerback 9.83244 -0.249721 -1.93763
upperback 1.4473 -0.460333 1.79117
thorax -3.97671 -0.190689 3.01717
lowerneck -16.3724 -3.11588 -10.1129
upperneck 15.2601 -3.2035 7.62211
head 7.68469 -1.40109 3.82668
rclavicle -2.73329e-015 -1.98785e-015
rhumerus -36.6099 -13.5567 -76.9733
rradius 34.507
rwrist 6.02302
rhand -14.8234 14.8509
rfingers 7.12502
rthumb 11.335 -14.8228
lclavicle -2.73329e-015 -1.98785e-015
lhumerus -34.8822 13.8908 80.8905
lradius 34.8024
lwrist 0.746986
lhand -20.5425 18.8343
lfingers 7.12502
lthumb 5.8161 48.7345
rfemur -14.364 -1.52903 24.3267
rtibia 40.9281
rfoot -20.8868 -8.86404
rtoes 2.69848
lfemur -16.2275 3.51163 -19.4825
ltibia 41.3574
lfoot -21.5361 1.25462
ltoes -3.97149
313
root 1.00651 17.1409 -17.0479 0.758184 -3.1577 0.300912
lowerback 9.44863 -0.318701 -2.00226
upperback 1.47972 -0.557255 1.70938
thorax -3.72316 -0.242525 2.97463
lowerneck -16.5602 -3.15425 -9.998
upperneck 15.2387 -3.27099 7.65346
head 7.71532 -1.41969 3.80959
rclavicle -2.18663e-014 -3.02153e-014
rhumerus -37.3276 -13.461 -76.852
rradius 34.9117
rwrist 5.79686
rhand -14.826 15.0546
rfingers 7.12502
rthumb 11.3326 -14.6192
lclavicle -2.18663e-014 -3.02153e-014
lhumerus -35.5274 13.9892 80.7524
lradius 34.7345
lwrist 0.768872
lhand -19.7671 20.0171
lfingers 7.12502
lthumb 6.56466 49.8954
rfemur -13.4825 -1.4266 24.1698
rtibia 39.2359
rfoot -20.2071 -8.97132
rtoes 2.52252
lfemur -15.4656 2.89097 -19.6786
ltibia 39.9032
lfoot -20.8524 1.44284
ltoes -3.47376
